[2026-03-02T15:59:55.236Z] Pipeline process started.
[2026-03-02T15:59:55.248Z] Downloading YouTube: https://youtube.com/shorts/Xqdlp_XDI4k?si=amPoQ-s90ZxI9CDX
[2026-03-02T16:00:00.156Z] YouTube download completed.
[2026-03-02T16:00:00.166Z] Extracting audio with FFmpeg...
[2026-03-02T16:00:01.597Z] Audio extraction successful.
[2026-03-02T16:00:01.602Z] Starting transcription...
[2026-03-02T16:00:03.130Z] Starting translation...
[2026-03-02T16:00:04.960Z] Generating segment 1/9: "Facebook ilk yaratdığım şey de..."
[2026-03-02T16:00:08.467Z] Segment 0 saved (19296 bytes).
[2026-03-02T16:00:08.472Z] Generating segment 2/9: "Eyni zamanda söhbət sistemləri..."
[2026-03-02T16:00:12.109Z] Segment 1 saved (41616 bytes).
[2026-03-02T16:00:12.116Z] Generating segment 3/9: "J.K. Rowling Harri Potteri yaz..."
[2026-03-02T16:00:14.286Z] Segment 2 saved (37440 bytes).
[2026-03-02T16:00:14.288Z] Generating segment 4/9: "Bəndin necə tikildiyini bilmir..."
[2026-03-02T16:00:16.727Z] Segment 3 saved (17280 bytes).
[2026-03-02T16:00:16.730Z] Generating segment 5/9: "Bir milyonluq insanı hansı işə..."
[2026-03-02T16:00:18.976Z] Segment 4 saved (23616 bytes).
[2026-03-02T16:00:18.978Z] Generating segment 6/9: "Yaxşı, sizə bir sirr deməyə ic..."
[2026-03-02T16:00:21.101Z] Segment 5 saved (20448 bytes).
[2026-03-02T16:00:21.103Z] Generating segment 7/9: "Heç kim başladığı zaman bilmir..."
[2026-03-02T16:00:23.558Z] Segment 6 saved (17424 bytes).
[2026-03-02T16:00:23.563Z] Generating segment 8/9: "İdeylər tam şəkildə formalaşmı..."
[2026-03-02T16:00:25.856Z] Segment 7 saved (18432 bytes).
[2026-03-02T16:00:25.860Z] Generating segment 9/9: "formalaşmır. Onlar ancaq onlar..."
[2026-03-02T16:00:28.268Z] Segment 8 saved (48960 bytes).
[2026-03-02T16:00:28.275Z] Running FFmpeg: C:\Users\fullm\Downloads\dubverse-saas\node_modules\ffmpeg-static\ffmpeg.exe -i C:\Users\fullm\Downloads\dubverse-saas\tmp\uploads\99c89922-114a-4fc9-944c-769ae9eb6c39\audio.mp3 -i C:\Users\fullm\Downloads\dubverse-saas\tmp\uploads\99c89922-114a-4fc9-944c-769ae9eb6c39\segments\seg_0.mp3 -i C:\Users\fullm\Downloads\dubverse-saas\tmp\uploads\99c89922-114a-4fc9-944c-769ae9eb6c39\segments\seg_1.mp3 -i C:\Users\fullm\Downloads\dubverse-saas\tmp\uploads\99c89922-114a-4fc9-944c-769ae9eb6c39\segments\seg_2.mp3 -i C:\Users\fullm\Downloads\dubverse-saas\tmp\uploads\99c89922-114a-4fc9-944c-769ae9eb6c39\segments\seg_3.mp3 -i C:\Users\fullm\Downloads\dubverse-saas\tmp\uploads\99c89922-114a-4fc9-944c-769ae9eb6c39\segments\seg_4.mp3 -i C:\Users\fullm\Downloads\dubverse-saas\tmp\uploads\99c89922-114a-4fc9-944c-769ae9eb6c39\segments\seg_5.mp3 -i C:\Users\fullm\Downloads\dubverse-saas\tmp\uploads\99c89922-114a-4fc9-944c-769ae9eb6c39\segments\seg_6.mp3 -i C:\Users\fullm\Downloads\dubverse-saas\tmp\uploads\99c89922-114a-4fc9-944c-769ae9eb6c39\segments\seg_7.mp3 -i C:\Users\fullm\Downloads\dubverse-saas\tmp\uploads\99c89922-114a-4fc9-944c-769ae9eb6c39\segments\seg_8.mp3 -filter_complex [1:a]aformat=sample_rates=44100:channel_layouts=stereo,adelay=0|0[s0];[2:a]aformat=sample_rates=44100:channel_layouts=stereo,adelay=2000|2000[s1];[3:a]aformat=sample_rates=44100:channel_layouts=stereo,adelay=8000|8000[s2];[4:a]aformat=sample_rates=44100:channel_layouts=stereo,adelay=14000|14000[s3];[5:a]aformat=sample_rates=44100:channel_layouts=stereo,adelay=16000|16000[s4];[6:a]aformat=sample_rates=44100:channel_layouts=stereo,adelay=19000|19000[s5];[7:a]aformat=sample_rates=44100:channel_layouts=stereo,adelay=23000|23000[s6];[8:a]aformat=sample_rates=44100:channel_layouts=stereo,adelay=26000|26000[s7];[9:a]aformat=sample_rates=44100:channel_layouts=stereo,adelay=29000|29000[s8];[0:a]aformat=sample_rates=44100:channel_layouts=stereo,volume=0[bg];[bg][s0][s1][s2][s3][s4][s5][s6][s7][s8]amix=inputs=10:duration=first:dropout_transition=999,volume=20[out] -map [out] -acodec libmp3lame -ar 44100 -b:a 192k -y C:\Users\fullm\Downloads\dubverse-saas\tmp\uploads\99c89922-114a-4fc9-944c-769ae9eb6c39\dubbed_audio.mp3
[2026-03-02T16:00:28.880Z] FFmpeg Err: Input #0, mp3, from 'C:\Users\fullm\Downloads\dubverse-saas\tmp\uploads\99c89922-114a-4fc9-944c-769ae9eb6c39\audio.mp3':
  Metadata:
    major_brand     : mp42
    minor_version   : 0
    compatible_brands: isommp42
    encoder         : Lavf60.16.100
  Duration: 00:00:38.58, start: 0.025057, bitrate: 128 kb/s
  Stream #0:0: Audio: mp3, 44100 Hz, stereo, fltp, 128 kb/s
    Metadata:
      encoder         : Lavc60.31
[mp3 @ 0000017525fdeac0] Estimating duration from bitrate, this may be inaccurate
Input #1, mp3, from 'C:\Users\fullm\Downloads\dubverse-saas\tmp\uploads\99c89922-114a-4fc9-944c-769ae9eb6c39\segments\seg_0.mp3':
  Duration: 00:00:03.22, start: 0.000000, bitrate: 48 kb/s
  Stream #1:0: Audio: mp3, 24000 Hz, mono, fltp, 48 kb/s
[mp3 @ 000001752601f7c0] Estimating duration from bitrate, this may be inaccurate
Input #2, mp3, from 'C:\Users\fullm\Downloads\dubverse-saas\tmp\uploads\99c89922-114a-4fc9-944c-769ae9eb6c39\segments\seg_1.mp3':
  Duration: 00:00:06.94, start: 0.000000, bitrate: 48 kb/s
  Stream #2:0: Audio: mp3, 24000 Hz, mono, fltp, 48 kb/s
[mp3 @ 000001752600aac0] Estimating duration from bitrate, this may be inaccurate
Input #3, mp3, from 'C:\Users\fullm\Downloads\dubverse-saas\tmp\uploads\99c89922-114a-4fc9-944c-769ae9eb6c39\segments\seg_2.mp3':
  Duration: 00:00:06.24, start: 0.000000, bitrate: 48 kb/s
  Stream #3:0: Audio: mp3, 24000 Hz, mono, fltp, 48 kb/s
[mp3 @ 000001752605d880] Estimating duration from bitrate, this may be inaccurate
Input #4, mp3, from 'C:\Users\fullm\Downloads\dubverse-saas\tmp\uploads\99c89922-114a-4fc9-944c-769ae9eb6c39\segments\seg_3.mp3':
  Duration: 00:00:02.88, start: 0.000000, bitrate: 48 kb/s
  Stream #4:0: Audio: mp3, 24000 Hz, mono, fltp, 48 kb/s
[mp3 @ 000001752607bb00] Estimating duration from bitrate, this may be inaccurate
Input #5, mp3, from 'C:\Users\fullm\Downloads\dubverse-saas\tmp\uploads\99c89922-114a-4fc9-944c-769ae9eb6c39\segments\seg_4.mp3':
  Duration: 00:00:03.94, start: 0.000000, bitrate: 48 kb/s
  Stream #5:0: Audio: mp3, 24000 Hz, mono, fltp, 48 kb/s
[mp3 @ 0000017526094a40] Estimating duration from bitrate, this may be inaccurate
Input #6, mp3, from 'C:\Users\fullm\Downloads\dubverse-saas\tmp\uploads\99c89922-114a-4fc9-944c-769ae9eb6c39\segments\seg_5.mp3':
  Duration: 00:00:03.41, start: 0.000000, bitrate: 48 kb/s
  Stream #6:0: Audio: mp3, 24000 Hz, mono, fltp, 48 kb/s
[mp3 @ 00000175260838c0] Estimating duration from bitrate, this may be inaccurate
Input #7, mp3, from 'C:\Users\fullm\Downloads\dubverse-saas\tmp\uploads\99c89922-114a-4fc9-944c-769ae9eb6c39\segments\seg_6.mp3':
  Duration: 00:00:02.90, start: 0.000000, bitrate: 48 kb/s
  Stream #7:0: Audio: mp3, 24000 Hz, mono, fltp, 48 kb/s
[mp3 @ 000001752609eb40] Estimating duration from bitrate, this may be inaccurate
Input #8, mp3, from 'C:\Users\fullm\Downloads\dubverse-saas\tmp\uploads\99c89922-114a-4fc9-944c-769ae9eb6c39\segments\seg_7.mp3':
  Duration: 00:00:03.07, start: 0.000000, bitrate: 48 kb/s
  Stream #8:0: Audio: mp3, 24000 Hz, mono, fltp, 48 kb/s
[mp3 @ 0000017526174880] Estimating duration from bitrate, this may be inaccurate
Input #9, mp3, from 'C:\Users\fullm\Downloads\dubverse-saas\tmp\uploads\99c89922-114a-4fc9-944c-769ae9eb6c39\segments\seg_8.mp3':
  Duration: 00:00:08.16, start: 0.000000, bitrate: 48 kb/s
  Stream #9:0: Audio: mp3, 24000 Hz, mono, fltp, 48 kb/s
Stream mapping:
  Stream #0:0 (mp3float) -> aformat:default
  Stream #1:0 (mp3float) -> aformat:default
  Stream #2:0 (mp3float) -> aformat:default
  Stream #3:0 (mp3float) -> aformat:default
  Stream #4:0 (mp3float) -> aformat:default
  Stream #5:0 (mp3float) -> aformat:default
  Stream #6:0 (mp3float) -> aformat:default
  Stream #7:0 (mp3float) -> aformat:default
  Stream #8:0 (mp3float) -> aformat:default
  Stream #9:0 (mp3float) -> aformat:default
  volume:default -> Stream #0:0 (libmp3lame)
Output #0, mp3, to 'C:\Users\fullm\Downloads\dubverse-saas\tmp\uploads\99c89922-114a-4fc9-944c-769ae9eb6c39\dubbed_audio.mp3':
  Metadata:
    major_brand     : mp42
    minor_version   : 0
    compatible_brands: isommp42
    TSSE            : Lavf60.16.100
  Stream #0:0: Audio: mp3, 44100 Hz, stereo, fltp, 192 kb/s
    Metadata:
      encoder         : Lavc60.31.102 libmp3lame
size=       0kB time=N/A bitrate=N/A speed=N/A    
[2026-03-02T16:00:29.294Z] FFmpeg Err: size=     256kB time=00:00:13.08 bitrate= 160.2kbits/s speed=25.6x    
[2026-03-02T16:00:29.798Z] FFmpeg Err: size=     512kB time=00:00:31.32 bitrate= 133.9kbits/s speed=  31x    
[2026-03-02T16:00:30.062Z] FFmpeg Err: [out#0/mp3 @ 000001752619ac80] video:0kB audio:904kB subtitle:0kB other streams:0kB global headers:0kB muxing overhead: 0.082506%
size=     905kB time=00:00:38.53 bitrate= 192.4kbits/s speed=32.3x    

[2026-03-02T16:00:30.086Z] Starting final video/audio muxing...
[2026-03-02T16:00:30.090Z] Running FFmpeg: C:\Users\fullm\Downloads\dubverse-saas\node_modules\ffmpeg-static\ffmpeg.exe -i C:\Users\fullm\Downloads\dubverse-saas\tmp\uploads\99c89922-114a-4fc9-944c-769ae9eb6c39\video.mp4 -i C:\Users\fullm\Downloads\dubverse-saas\tmp\uploads\99c89922-114a-4fc9-944c-769ae9eb6c39\dubbed_audio.mp3 -map 0:v:0 -map 1:a:0 -c:v copy -c:a aac -b:a 192k -shortest -y C:\Users\fullm\Downloads\dubverse-saas\tmp\uploads\99c89922-114a-4fc9-944c-769ae9eb6c39\final_dubbed.mp4
[2026-03-02T16:00:30.243Z] FFmpeg Err: Input #0, mov,mp4,m4a,3gp,3g2,mj2, from 'C:\Users\fullm\Downloads\dubverse-saas\tmp\uploads\99c89922-114a-4fc9-944c-769ae9eb6c39\video.mp4':
  Metadata:
    major_brand     : mp42
    minor_version   : 0
    compatible_brands: isommp42
    encoder         : Google
  Duration: 00:00:38.55, start: 0.000000, bitrate: 593 kb/s
  Stream #0:0[0x1](und): Video: h264 (Constrained Baseline) (avc1 / 0x31637661), yuv420p(tv, bt709, progressive), 360x640 [SAR 1:1 DAR 9:16], 398 kb/s, 30 fps, 30 tbr, 15360 tbn (default)
    Metadata:
      handler_name    : ISO Media file produced by Google Inc.
      vendor_id       : [0][0][0][0]
  Stream #0:1[0x2](und): Audio: aac (LC) (mp4a / 0x6134706D), 48000 Hz, stereo, fltp, 192 kb/s (default)
    Metadata:
      handler_name    : ISO Media file produced by Google Inc.
      vendor_id       : [0][0][0][0]
Input #1, mp3, from 'C:\Users\fullm\Downloads\dubverse-saas\tmp\uploads\99c89922-114a-4fc9-944c-769ae9eb6c39\dubbed_audio.mp3':
  Metadata:
    major_brand     : mp42
    minor_version   : 0
    compatible_brands: isommp42
    encoder         : Lavf60.16.100
  Duration: 00:00:38.58, start: 0.025057, bitrate: 192 kb/s
  Stream #1:0: Audio: mp3, 44100 Hz, stereo, fltp, 192 kb/s
    Metadata:
      encoder         : Lavc60.31
Stream mapping:
  Stream #0:0 -> #0:0 (copy)
  Stream #1:0 -> #0:1 (mp3 (mp3float) -> aac (native))

[2026-03-02T16:00:30.269Z] FFmpeg Err: Output #0, mp4, to 'C:\Users\fullm\Downloads\dubverse-saas\tmp\uploads\99c89922-114a-4fc9-944c-769ae9eb6c39\final_dubbed.mp4':
  Metadata:
    major_brand     : mp42
    minor_version   : 0
    compatible_brands: isommp42
    encoder         : Lavf60.16.100
  Stream #0:0(und): Video: h264 (Constrained Baseline) (avc1 / 0x31637661), yuv420p(tv, bt709, progressive), 360x640 [SAR 1:1 DAR 9:16], q=2-31, 398 kb/s, 30 fps, 30 tbr, 15360 tbn (default)
    Metadata:
      handler_name    : ISO Media file produced by Google Inc.
      vendor_id       : [0][0][0][0]
  Stream #0:1: Audio: aac (LC) (mp4a / 0x6134706D), 44100 Hz, stereo, fltp, 192 kb/s
    Metadata:
      encoder         : Lavc60.31.102 aac
size=       0kB time=N/A bitrate=N/A speed=N/A    
[2026-03-02T16:00:30.748Z] FFmpeg Err: size=     512kB time=00:00:07.16 bitrate= 585.3kbits/s speed=14.3x    
[2026-03-02T16:00:31.269Z] FFmpeg Err: size=    1024kB time=00:00:14.53 bitrate= 577.2kbits/s speed=14.5x    
[2026-03-02T16:00:31.749Z] FFmpeg Err: size=    1280kB time=00:00:20.20 bitrate= 519.1kbits/s speed=13.5x    
[2026-03-02T16:00:32.256Z] FFmpeg Err: size=    2048kB time=00:00:29.43 bitrate= 570.0kbits/s speed=14.7x    
[2026-03-02T16:00:32.776Z] FFmpeg Err: [out#0/mp4 @ 0000026e4a56be00] video:1874kB audio:750kB subtitle:0kB other streams:0kB global headers:0kB muxing overhead: 1.269449%
size=    2657kB time=00:00:38.54 bitrate= 564.7kbits/s speed=15.6x    
[aac @ 0000026e4a3f9a80] Qavg: 19479.137

[2026-03-02T16:00:32.787Z] Pipeline finished successfully!
